<svg xmlns="http://www.w3.org/2000/svg" width="22" height="22" viewBox="0 0 18.832 21.627">
  <g id="logout" transform="translate(-33.082)">
    <path id="Path_262" data-name="Path 262" d="M47.032,20.613a1.014,1.014,0,0,1-1.014,1.014H36.461a3.383,3.383,0,0,1-3.379-3.379V3.379A3.383,3.383,0,0,1,36.461,0h9.557a1.014,1.014,0,1,1,0,2.028H36.461A1.353,1.353,0,0,0,35.11,3.379V18.248A1.353,1.353,0,0,0,36.461,19.6h9.557A1.014,1.014,0,0,1,47.032,20.613ZM51.617,10.1,46.8,5.279a1.014,1.014,0,1,0-1.434,1.434L48.453,9.8H40.472a1.014,1.014,0,0,0,0,2.028h7.981l-3.087,3.087A1.014,1.014,0,1,0,46.8,16.348l4.818-4.818A1.014,1.014,0,0,0,51.617,10.1Z" fill="#ffffff"/>
  </g>
</svg>
